<?xml version="1.0" encoding="iso-8859-1"?>
<!-- Generator: Adobe Illustrator 19.0.0, SVG Export Plug-In . SVG Version: 6.00 Build 0)  -->
<svg version="1.1" id="Layer_1" xmlns="http://www.w3.org/2000/svg" xmlns:xlink="http://www.w3.org/1999/xlink" x="0px" y="0px"
	 viewBox="0 0 495.976 495.976" style="enable-background:new 0 0 495.976 495.976;" xml:space="preserve">
<g>
	<path style="fill:#333333;" d="M450.709,390.76l-13.08-9.232c27.696-39.224,42.336-85.408,42.336-133.544
		c0-63.368-25.112-122.56-70.704-166.68L420.389,69.8c48.736,47.16,75.576,110.44,75.576,178.176
		C495.965,299.448,480.317,348.816,450.709,390.76z"/>
	<path style="fill:#333333;" d="M429.269,417.104l-11.688-10.92c3.584-3.84,7.168-7.944,10.616-12.2l12.424,10.096
		C436.925,408.608,433.117,412.992,429.269,417.104z"/>
	<path style="fill:#333333;" d="M28.565,172.416l-15.128-5.2C47.437,68.432,140.477,1.24,244.957,0l0.184,16
		C147.413,17.16,60.373,80.016,28.565,172.416z"/>
	<path style="fill:#333333;" d="M275.981,17.728c-5.072-0.616-10.176-1.088-15.336-1.384l0.92-15.968
		c5.488,0.312,10.936,0.816,16.336,1.464L275.981,17.728z"/>
	<path style="fill:#333333;" d="M247.965,495.976c-92.848,0-177.184-51.2-220.104-133.632l14.184-7.392
		c40.152,77.12,119.056,125.024,205.912,125.024c8.208,0,16.496-0.448,24.608-1.312l1.704,15.904
		C265.597,495.504,256.749,495.976,247.965,495.976z"/>
	<path style="fill:#333333;" d="M21.461,349.12c-2.376-5.32-4.576-10.752-6.552-16.168l15.032-5.488
		c1.84,5.056,3.912,10.152,6.136,15.12L21.461,349.12z"/>
	<path style="fill:#333333;" d="M443.581,339.608l-14.488-6.8c12.52-26.656,18.864-55.192,18.864-84.832
		c0-33.568-8.496-66.784-24.552-96.032l14.032-7.704c17.352,31.608,26.52,67.48,26.52,103.736
		C463.965,279.984,457.109,310.816,443.581,339.608z"/>
	<path style="fill:#333333;" d="M426.013,370.24l-13.184-9.064c3.16-4.584,6.168-9.384,8.952-14.264l13.888,7.936
		C432.669,360.112,429.421,365.288,426.013,370.24z"/>
	<path style="fill:#333333;" d="M83.205,134.584l-13.168-9.072c32.448-47.04,81.064-78.848,136.912-89.584l3.016,15.72
		C158.269,61.568,113.253,91.032,83.205,134.584z"/>
	<path style="fill:#333333;" d="M224.469,49.4l-1.872-15.888c5.736-0.672,11.584-1.128,17.392-1.328l0.576,15.984
		C235.189,48.36,229.781,48.776,224.469,49.4z"/>
	<path style="fill:#333333;" d="M217.549,461.856c-55.896-7.88-105.808-36.952-140.52-81.856l12.656-9.784
		c32.16,41.584,78.36,68.496,130.104,75.8L217.549,461.856z"/>
	<path style="fill:#333333;" d="M67.981,367.392c-3.224-4.856-6.296-9.904-9.12-15.016l14-7.736c2.616,4.72,5.456,9.4,8.448,13.888
		L67.981,367.392z"/>
	<path style="fill:#333333;" d="M122.861,135.856l-11.904-10.688c20.496-22.848,46.56-40.336,75.376-50.568l5.36,15.08
		C165.389,99.016,141.589,114.976,122.861,135.856z"/>
	<path style="fill:#333333;" d="M205.413,85.456l-4.048-15.488c5.352-1.392,10.84-2.56,16.336-3.472l2.608,15.784
		C215.301,83.112,210.285,84.184,205.413,85.456z"/>
	<path style="fill:#333333;" d="M200.757,425.864c-29.352-7.784-56.608-22.952-78.832-43.864l10.968-11.656
		c20.288,19.112,45.168,32.952,71.952,40.056L200.757,425.864z"/>
	<path style="fill:#333333;" d="M110.333,370.048c-3.888-4.392-7.616-9.008-11.064-13.728l12.92-9.44
		c3.152,4.312,6.552,8.536,10.112,12.552L110.333,370.048z"/>
	<path style="fill:#333333;" d="M424.293,300.608l-15.328-4.576c4.64-15.552,7-31.72,7-48.056c0-21.12-3.864-41.704-11.504-61.2
		l14.904-5.832c8.36,21.36,12.592,43.912,12.592,67.032C431.965,265.864,429.389,283.568,424.293,300.608z"/>
	<path style="fill:#333333;" d="M411.077,333.096l-14.168-7.408c2.552-4.896,4.896-9.976,6.96-15.096l14.84,5.984
		C416.453,322.184,413.877,327.744,411.077,333.096z"/>
</g>
<path style="fill:#FFA64D;" d="M288.437,495.928c-42.496,0-81.992-28.88-93.264-71.32c-4.872-18.4-4.208-37.6,1.936-55.528
	c5.912-17.272,0.304-37.168-14.288-50.704l-1.256-1.184c-14.032-13.464-34.344-17.656-52.968-10.912
	c-16.44,5.96-34.216,7.272-51.464,3.832c-26.76-5.352-50.056-21.912-63.904-45.448c-13.84-23.512-16.984-52.024-8.616-78.224
	c12.856-40.28,52.872-68.176,94.824-66.44c23.952,1.016,46.448,10.624,63.344,27.064c13.76,13.4,33.856,17.768,51.208,11.168
	l0.92-0.344c18.664-6.88,31.592-22.664,33.744-41.176c2.28-19.704,10.584-38.04,24.008-53.024
	c29.624-33.096,79.232-41.344,117.976-19.616l0,0c23.968,13.448,41.112,36.424,47.032,63.032
	c5.92,26.624,0.216,54.608-15.648,76.776c-9.32,13.008-21.808,23.536-36.12,30.448c-23.096,11.16-38.6,31.064-42.552,54.624
	c-0.168,1.032-0.36,2.048-0.568,3.056c-4.504,22.336,2.48,46.696,19.168,66.808c8.896,10.712,15.232,23.032,18.832,36.616
	c6.736,25.472,2.912,51.888-10.768,74.416c-13.672,22.496-35.384,38.08-61.144,43.84
	C302.045,495.208,295.197,495.928,288.437,495.928z"/>
<g>
	<path style="fill:#333333;" d="M247.965,311.976c-35.288,0-64-28.712-64-64s28.712-64,64-64s64,28.712,64,64
		S283.253,311.976,247.965,311.976z M247.965,199.976c-26.472,0-48,21.528-48,48s21.528,48,48,48s48-21.528,48-48
		S274.437,199.976,247.965,199.976z"/>
	<path style="fill:#333333;" d="M343.965,191.976c-35.288,0-64-28.712-64-64s28.712-64,64-64s64,28.712,64,64
		c0,13.952-4.416,27.208-12.76,38.336l-12.8-9.592c6.248-8.336,9.552-18.272,9.552-28.744c0-26.472-21.528-48-48-48
		s-48,21.528-48,48s21.528,48,48,48c11,0,21.352-3.624,29.936-10.488l9.984,12.496C372.605,187.008,358.429,191.976,343.965,191.976
		z"/>
	<path style="fill:#333333;" d="M343.965,159.976c-17.648,0-32-14.352-32-32s14.352-32,32-32s32,14.352,32,32
		S361.613,159.976,343.965,159.976z M343.965,111.976c-8.824,0-16,7.176-16,16s7.176,16,16,16s16-7.176,16-16
		S352.789,111.976,343.965,111.976z"/>
	<path style="fill:#333333;" d="M95.965,279.976c-35.288,0-64-28.712-64-64s28.712-64,64-64s64,28.712,64,64
		S131.253,279.976,95.965,279.976z M95.965,167.976c-26.472,0-48,21.528-48,48s21.528,48,48,48s48-21.528,48-48
		S122.437,167.976,95.965,167.976z"/>
	<path style="fill:#333333;" d="M95.965,247.976c-17.648,0-32-14.352-32-32s14.352-32,32-32s32,14.352,32,32
		S113.613,247.976,95.965,247.976z M95.965,199.976c-8.824,0-16,7.176-16,16s7.176,16,16,16s16-7.176,16-16
		S104.789,199.976,95.965,199.976z"/>
	<path style="fill:#333333;" d="M287.965,463.976c-35.288,0-64-28.712-64-64s28.712-64,64-64s64,28.712,64,64
		S323.253,463.976,287.965,463.976z M287.965,351.976c-26.472,0-48,21.528-48,48s21.528,48,48,48s48-21.528,48-48
		S314.437,351.976,287.965,351.976z"/>
	<path style="fill:#333333;" d="M287.965,431.976c-17.648,0-32-14.352-32-32s14.352-32,32-32s32,14.352,32,32
		S305.613,431.976,287.965,431.976z M287.965,383.976c-8.824,0-16,7.176-16,16s7.176,16,16,16s16-7.176,16-16
		S296.789,383.976,287.965,383.976z"/>
</g>
<g>
</g>
<g>
</g>
<g>
</g>
<g>
</g>
<g>
</g>
<g>
</g>
<g>
</g>
<g>
</g>
<g>
</g>
<g>
</g>
<g>
</g>
<g>
</g>
<g>
</g>
<g>
</g>
<g>
</g>
</svg>
